<svg width="183" height="172" viewBox="0 0 183 172" fill="none" xmlns="http://www.w3.org/2000/svg">
<path d="M72.8907 130.681C73.2663 130.681 73.6304 130.751 73.9811 130.889C74.3357 131.023 74.6445 131.21 74.9037 131.448L74.3852 132.064C74.1908 131.869 73.962 131.713 73.699 131.598C73.4397 131.484 73.1748 131.426 72.906 131.426C72.376 131.426 71.93 131.597 71.564 131.935C71.2018 132.276 71.0226 132.688 71.0226 133.175C71.0226 133.668 71.2018 134.084 71.564 134.422C71.93 134.763 72.376 134.931 72.906 134.931C73.455 134.931 73.9468 134.736 74.3852 134.343L74.9114 134.895C74.6369 135.15 74.3185 135.35 73.9582 135.497C73.596 135.64 73.23 135.712 72.8602 135.712C72.0863 135.712 71.4363 135.472 70.9082 134.988C70.3783 134.501 70.1152 133.899 70.1152 133.182C70.1152 132.48 70.3821 131.889 70.9159 131.405C71.4534 130.923 72.113 130.681 72.8907 130.681Z" fill="#003E59"/>
<path d="M81.696 134.551H79.0272L78.524 135.676H77.5938L79.927 130.703H80.842L83.1524 135.676H82.1992L81.696 134.551ZM81.3605 133.806L80.3616 131.598L79.3627 133.806H81.3605Z" fill="#003E59"/>
<path d="M86.3193 130.703H88.4315C89.091 130.703 89.6057 130.851 89.9717 131.147C90.3377 131.444 90.5207 131.862 90.5207 132.401C90.5207 132.966 90.3377 133.403 89.9717 133.713C89.6057 134.024 89.091 134.178 88.4315 134.178H87.2115V135.676H86.3193V130.703ZM87.2115 131.455V133.426H88.3933C89.2416 133.426 89.6667 133.093 89.6667 132.423C89.6667 131.778 89.2416 131.455 88.3933 131.455H87.2115Z" fill="#003E59"/>
<path d="M94.7603 135.676H93.8682V130.703H94.7603V135.676Z" fill="#003E59"/>
<path d="M102.228 131.455H100.55V135.676H99.6582V131.455H97.9883V130.703H102.228V131.455Z" fill="#003E59"/>
<path d="M108.868 134.551H106.199L105.696 135.676H104.766L107.099 130.703H108.014L110.324 135.676H109.371L108.868 134.551ZM108.532 133.806L107.533 131.598L106.535 133.806H108.532Z" fill="#003E59"/>
<path d="M114.383 134.917H116.671V135.676H113.491V130.703H114.383V134.917Z" fill="#003E59"/>
<path d="M7.31445 133.784H45.1783" stroke="#003E59" stroke-width="2"/>
<path d="M139.038 133.784H176.904" stroke="#003E59" stroke-width="2"/>
<path d="M76.5336 80.8418V99.975H69.4004V81.0317L73.0242 78.3406L74.797 79.6019L76.5336 80.8418Z" fill="#003E59"/>
<path d="M88.6517 82.9112V99.975H81.5186V84.3893L83.4744 85.7868L85.1423 86.9729L85.2853 86.8062L86.126 85.8352L87.0391 84.7763L88.6517 82.9112Z" fill="#003E59"/>
<path d="M100.774 68.8932V99.975H93.6387V77.1474L100.774 68.8932Z" fill="#003E59"/>
<path d="M112.892 64.38V99.975H105.759V63.1276L108.361 60.1158L109.977 61.6369L112.892 64.38Z" fill="#003E59"/>
<path d="M111.193 48.8176V57.8762L110.07 56.9481L108.36 55.5309L85.2852 82.225L85.1422 82.3916L74.8027 75.0278L73.0242 73.7593L71.3562 75.1318L69.4004 76.7407V71.414L72.9098 68.6405L74.7265 69.8768L84.3492 76.42L84.4617 76.2928L104.851 52.8703L102.243 50.6289L111.193 48.8176Z" fill="#003E59"/>
<mask id="mask0_3018_1892" style="mask-type:luminance" maskUnits="userSpaceOnUse" x="68" y="77" width="10" height="24">
<path d="M68.8076 77.5147H77.1036V100.53H68.8076V77.5147Z" fill="white"/>
</mask>
<g mask="url(#mask0_3018_1892)">
<path d="M76.5339 100.521H69.4007C69.3226 100.521 69.2482 100.507 69.1777 100.478C69.1072 100.452 69.0443 100.412 68.989 100.36C68.9356 100.31 68.8937 100.251 68.8632 100.183C68.8346 100.117 68.8193 100.047 68.8193 99.975V81.0317C68.8193 80.8561 68.8918 80.7128 69.0386 80.6035L72.6623 77.9017C72.7672 77.83 72.8816 77.7942 73.0112 77.7942C73.1389 77.7942 73.2552 77.83 73.3581 77.9017L76.8675 80.4028C77.0219 80.5121 77.0982 80.6573 77.0982 80.8382V99.975C77.0982 100.045 77.0829 100.115 77.0543 100.179C77.0276 100.246 76.9857 100.305 76.9342 100.355C76.8809 100.407 76.8199 100.446 76.7512 100.475C76.6826 100.504 76.6102 100.518 76.5339 100.521ZM69.9802 99.4286H75.9582V81.1159L73.036 79.034L69.9841 81.2987L69.9802 99.4286Z" fill="#1A1A1A"/>
</g>
<mask id="mask1_3018_1892" style="mask-type:luminance" maskUnits="userSpaceOnUse" x="80" y="82" width="10" height="19">
<path d="M80.5195 82.1013H89.3035V100.53H80.5195V82.1013Z" fill="white"/>
</mask>
<g mask="url(#mask1_3018_1892)">
<path d="M88.6511 100.521H81.5179C81.4398 100.521 81.3654 100.507 81.2949 100.478C81.2244 100.452 81.1615 100.412 81.1062 100.36C81.0528 100.31 81.0109 100.251 80.9804 100.183C80.9518 100.117 80.9365 100.047 80.9365 99.975V84.3893C80.9403 84.1671 81.049 84.0059 81.2606 83.9073C81.4722 83.807 81.6742 83.8231 81.8649 83.9539L85.0407 86.2168L88.1993 82.5654C88.2756 82.4704 88.3747 82.4059 88.4967 82.3719C88.6168 82.3378 88.7369 82.3396 88.8551 82.3808C88.9752 82.4203 89.0705 82.4883 89.141 82.5869C89.2135 82.6836 89.2459 82.7929 89.2421 82.9112V99.975C89.2421 100.048 89.2268 100.118 89.1982 100.186C89.1677 100.253 89.1239 100.314 89.0686 100.364C89.0133 100.416 88.9504 100.455 88.878 100.482C88.8055 100.509 88.7293 100.521 88.6511 100.521ZM82.0974 99.4285H88.0716V84.4413L85.5935 87.3097C85.5458 87.3653 85.4886 87.41 85.4238 87.4441C85.3571 87.4781 85.2866 87.4996 85.2122 87.5086C85.1379 87.5175 85.0636 87.5122 84.9911 87.4943C84.9168 87.4745 84.8501 87.4441 84.791 87.4011L82.0974 85.4858V99.4285Z" fill="#1A1A1A"/>
</g>
<mask id="mask2_3018_1892" style="mask-type:luminance" maskUnits="userSpaceOnUse" x="92" y="67" width="10" height="34">
<path d="M92.7197 67.8827H101.504V100.53H92.7197V67.8827Z" fill="white"/>
</mask>
<g mask="url(#mask2_3018_1892)">
<path d="M100.774 100.521H93.639C93.5627 100.521 93.4884 100.507 93.4179 100.478C93.3454 100.452 93.2825 100.412 93.2291 100.36C93.1739 100.31 93.1319 100.251 93.1014 100.185C93.0709 100.117 93.0557 100.047 93.0557 99.975V77.1474C93.0614 77.0237 93.1052 76.9144 93.1872 76.8195L100.322 68.5492C100.399 68.456 100.496 68.3933 100.614 68.3574C100.732 68.3234 100.85 68.3252 100.969 68.361C101.087 68.3987 101.182 68.4649 101.254 68.5599C101.327 68.6531 101.365 68.7588 101.365 68.877V99.975C101.365 100.048 101.35 100.118 101.319 100.186C101.291 100.253 101.247 100.314 101.192 100.364C101.136 100.416 101.071 100.455 100.999 100.482C100.927 100.509 100.852 100.521 100.774 100.521ZM94.2204 99.4285H100.191V70.434L94.2204 77.3427V99.4285Z" fill="#1A1A1A"/>
</g>
<mask id="mask3_3018_1892" style="mask-type:luminance" maskUnits="userSpaceOnUse" x="104" y="59" width="10" height="42">
<path d="M104.92 59.168H113.704V100.53H104.92V59.168Z" fill="white"/>
</mask>
<g mask="url(#mask3_3018_1892)">
<path d="M112.892 100.521H105.759C105.681 100.521 105.607 100.507 105.536 100.478C105.466 100.452 105.403 100.412 105.347 100.36C105.294 100.31 105.252 100.251 105.222 100.183C105.193 100.117 105.178 100.047 105.178 99.975V63.1276C105.182 63.0058 105.225 62.8965 105.307 62.8015L107.913 59.7861C107.965 59.7252 108.028 59.6786 108.1 59.6446C108.172 59.6088 108.251 59.5891 108.333 59.5855C108.415 59.5819 108.495 59.5944 108.571 59.6231C108.647 59.65 108.714 59.6912 108.771 59.7467L113.289 63.9983C113.403 64.1041 113.46 64.2348 113.458 64.3871V99.975C113.458 100.047 113.445 100.115 113.417 100.181C113.388 100.247 113.348 100.305 113.295 100.357C113.241 100.407 113.18 100.446 113.112 100.475C113.041 100.504 112.969 100.52 112.892 100.521ZM106.339 99.4286H112.313V64.6057L108.407 60.931L106.321 63.3247L106.339 99.4286Z" fill="#1A1A1A"/>
</g>
<path d="M69.4006 81.5782C69.2748 81.5764 69.1623 81.5423 69.0632 81.4742C68.9622 81.4044 68.8916 81.3148 68.8535 81.2037C68.8135 81.0926 68.8116 80.9815 68.8497 80.8705C68.8859 80.7576 68.9526 80.668 69.0518 80.5963L72.6622 77.9017C72.7671 77.83 72.8814 77.7942 73.0111 77.7942C73.1388 77.7942 73.2551 77.83 73.358 77.9017L76.8674 80.4028C76.9799 80.4978 77.0447 80.616 77.058 80.7576C77.0733 80.8973 77.0351 81.0245 76.9456 81.1392C76.8541 81.2521 76.7359 81.322 76.5872 81.347C76.4385 81.3739 76.3012 81.3488 76.1735 81.2736L73.0206 79.0268L69.7476 81.4563C69.6465 81.5352 69.5302 81.5764 69.4006 81.5782Z" fill="#1A1A1A"/>
<path d="M112.892 64.9264C112.732 64.9264 112.596 64.8727 112.482 64.767L108.407 60.931L106.191 63.4752C106.144 63.5307 106.085 63.5755 106.018 63.6095C105.949 63.6454 105.877 63.6651 105.801 63.6722C105.724 63.6794 105.65 63.674 105.576 63.6525C105.501 63.6328 105.435 63.5988 105.376 63.5522C105.316 63.5074 105.267 63.4519 105.231 63.3892C105.194 63.3247 105.172 63.2566 105.164 63.1849C105.156 63.1132 105.164 63.0416 105.187 62.9735C105.208 62.9036 105.244 62.8409 105.292 62.7854L107.899 59.77C107.951 59.7091 108.012 59.6625 108.086 59.6267C108.159 59.5926 108.237 59.5729 108.319 59.5693C108.401 59.5657 108.479 59.5783 108.555 59.6052C108.631 59.6338 108.7 59.675 108.757 59.7306L113.275 63.9822C113.357 64.0592 113.41 64.1524 113.431 64.2617C113.454 64.3692 113.443 64.4749 113.399 64.577C113.355 64.6792 113.283 64.7598 113.185 64.8225C113.088 64.8834 112.982 64.9157 112.865 64.9157L112.892 64.9264Z" fill="#1A1A1A"/>
<path d="M93.6367 77.692C93.5242 77.6938 93.4193 77.6652 93.3259 77.6096C93.2306 77.5541 93.1582 77.477 93.1105 77.3821C93.0629 77.2871 93.0457 77.1868 93.0591 77.0829C93.0724 76.9772 93.1163 76.884 93.1868 76.8034L100.322 68.5492C100.371 68.4936 100.429 68.4488 100.497 68.413C100.564 68.379 100.636 68.3575 100.713 68.3503C100.791 68.3431 100.865 68.3503 100.94 68.37C101.014 68.3915 101.081 68.4255 101.14 68.4703C101.199 68.5169 101.248 68.5707 101.285 68.6352C101.321 68.6997 101.342 68.766 101.351 68.8394C101.359 68.9111 101.351 68.981 101.328 69.0508C101.307 69.1207 101.271 69.1834 101.222 69.239L94.0884 77.4932C93.9703 77.6258 93.8197 77.6938 93.6367 77.692Z" fill="#1A1A1A"/>
<path d="M85.1431 87.5193C85.0134 87.5193 84.8991 87.4817 84.7961 87.4082L81.1704 84.8282C81.1132 84.7835 81.0675 84.7297 81.0313 84.6688C80.9951 84.6061 80.9741 84.5416 80.9646 84.4717C80.9569 84.4018 80.9607 84.3337 80.9817 84.2657C81.0008 84.1976 81.0313 84.1367 81.077 84.0793C81.1209 84.0238 81.1762 83.9772 81.2391 83.9414C81.302 83.9037 81.3706 83.8805 81.4449 83.8697C81.5174 83.8572 81.5917 83.859 81.6642 83.8733C81.7366 83.8876 81.8052 83.9163 81.8662 83.9539L85.042 86.2168L86.588 84.4412L86.609 84.4197L88.2045 82.5743C88.2541 82.5188 88.3112 82.474 88.3799 82.4382C88.4466 82.4041 88.519 82.3844 88.5953 82.3772C88.6734 82.3683 88.7478 82.3755 88.8221 82.397C88.8946 82.4167 88.9613 82.4507 89.0223 82.4955C89.0814 82.5421 89.129 82.5976 89.1652 82.6603C89.2015 82.7248 89.2243 82.7929 89.232 82.8646C89.2396 82.9362 89.2339 83.0079 89.211 83.076C89.1881 83.1459 89.1538 83.2086 89.1042 83.2641L87.4916 85.1328L87.4725 85.1543L85.5948 87.3258C85.4767 87.4584 85.3261 87.5229 85.1431 87.5193Z" fill="#1A1A1A"/>
<mask id="mask4_3018_1892" style="mask-type:luminance" maskUnits="userSpaceOnUse" x="68" y="48" width="45" height="36">
<path d="M68.8076 48.2424H112.24V83.0187H68.8076V48.2424Z" fill="white"/>
</mask>
<g mask="url(#mask4_3018_1892)">
<path d="M85.1426 82.9382C85.0129 82.9382 84.8986 82.9006 84.7956 82.8271L73.0493 74.4618L69.782 77.1529C69.6962 77.2246 69.5971 77.2676 69.4846 77.2819C69.3721 77.298 69.2635 77.2837 69.1606 77.2389C69.0557 77.1941 68.9737 77.1278 68.9108 77.0382C68.8498 76.9468 68.8193 76.8483 68.8193 76.7408V71.4142C68.8193 71.244 68.888 71.1042 69.0252 70.9931L72.5384 68.2232C72.6395 68.1426 72.7576 68.0996 72.8892 68.096C73.0226 68.0924 73.1427 68.1265 73.2514 68.1999L84.2466 75.6783L104.054 52.9224L101.858 51.0358C101.683 50.8853 101.626 50.7043 101.687 50.4893C101.75 50.2743 101.895 50.1435 102.125 50.0969L111.058 48.2856C111.239 48.2461 111.401 48.282 111.544 48.3931C111.687 48.5023 111.758 48.6439 111.76 48.8177V57.8763C111.756 57.9803 111.723 58.0752 111.662 58.163C111.601 58.249 111.519 58.3135 111.42 58.3565C111.319 58.3995 111.212 58.4156 111.104 58.4013C110.993 58.387 110.896 58.3476 110.81 58.2813L108.429 56.3194L85.7373 82.5691L85.5943 82.7357C85.4781 82.8701 85.3275 82.9382 85.1426 82.9382ZM73.0245 73.2094C73.1522 73.2112 73.2685 73.2488 73.3715 73.3205L85.0415 81.6356L107.93 55.1888C107.979 55.1315 108.039 55.0849 108.109 55.0491C108.18 55.0151 108.254 54.9953 108.332 54.9882C108.41 54.9828 108.488 54.9918 108.563 55.0151C108.637 55.0383 108.704 55.0742 108.763 55.1226L110.629 56.6688V49.4949L103.488 50.9408L105.261 52.4637C105.374 52.5641 105.435 52.6859 105.446 52.8292C105.457 52.9743 105.414 53.1033 105.316 53.2162L84.8128 76.7605C84.767 76.8143 84.7098 76.8591 84.6469 76.8931C84.5821 76.9271 84.5116 76.9486 84.4391 76.9576C84.3648 76.9666 84.2924 76.963 84.2218 76.9468C84.1494 76.9289 84.0827 76.9003 84.0236 76.8591L72.9521 69.3376L69.9802 71.6686V75.5386L72.6433 73.3474C72.75 73.2542 72.8777 73.2094 73.0245 73.2094Z" fill="#1A1A1A"/>
</g>
<mask id="mask5_3018_1892" style="mask-type:luminance" maskUnits="userSpaceOnUse" x="63" y="99" width="57" height="2">
<path d="M63.9277 99.072H119.072V100.53H63.9277V99.072Z" fill="white"/>
</mask>
<g mask="url(#mask5_3018_1892)">
<path d="M118.427 100.511H64.5072C64.4291 100.511 64.3566 100.496 64.2842 100.47C64.2137 100.441 64.1508 100.401 64.0974 100.351C64.044 100.299 64.0021 100.24 63.9716 100.174C63.943 100.108 63.9277 100.038 63.9277 99.9643C63.9277 99.8926 63.943 99.8227 63.9716 99.7564C64.0021 99.6901 64.044 99.631 64.0974 99.579C64.1508 99.5289 64.2137 99.4895 64.2842 99.4608C64.3566 99.4321 64.4291 99.4196 64.5072 99.4196H118.427C118.506 99.4196 118.578 99.4321 118.65 99.4608C118.721 99.4895 118.784 99.5289 118.837 99.579C118.893 99.631 118.934 99.6901 118.963 99.7564C118.992 99.8227 119.007 99.8926 119.007 99.9643C119.007 100.038 118.992 100.108 118.963 100.174C118.934 100.24 118.893 100.299 118.837 100.351C118.784 100.401 118.721 100.441 118.65 100.47C118.578 100.496 118.506 100.511 118.427 100.511Z" fill="#1A1A1A"/>
</g>
<path d="M6.08789 108.603H12.6988C14.2733 108.603 15.5162 108.922 16.4274 109.556C17.3424 110.187 17.7999 111.061 17.7999 112.179C17.7999 112.982 17.5597 113.666 17.0831 114.229C16.6047 114.793 15.9546 115.171 15.1311 115.361C16.1415 115.53 16.9383 115.933 17.5178 116.572C18.0973 117.209 18.387 118.011 18.387 118.98C18.387 120.204 17.8933 121.165 16.9078 121.861C15.926 122.555 14.5745 122.901 12.8513 122.901H6.08789V108.603ZM8.65752 110.746V114.523H12.5691C13.3774 114.523 14.0122 114.354 14.4754 114.014C14.9424 113.675 15.1769 113.208 15.1769 112.609C15.1769 112.007 14.9481 111.547 14.4906 111.226C14.0331 110.907 13.3926 110.746 12.5691 110.746H8.65752ZM8.65752 116.651V120.758H12.5691C13.5795 120.758 14.3629 120.579 14.9176 120.22C15.4762 119.858 15.7564 119.342 15.7564 118.672C15.7564 118.047 15.4743 117.554 14.91 117.196C14.3458 116.834 13.5642 116.651 12.5691 116.651H8.65752Z" fill="#003E59"/>
<path d="M25.8694 120.715H32.4498V122.901H23.2998V108.603H25.8694V120.715Z" fill="#003E59"/>
<path d="M49.7048 108.603V116.974C49.7048 118.843 49.1176 120.313 47.9434 121.388C46.7691 122.463 45.1526 123.001 43.0939 123.001C41.039 123.001 39.4206 122.463 38.2368 121.388C37.0568 120.313 36.4678 118.843 36.4678 116.974V108.603H39.0374V116.974C39.0374 118.174 39.3996 119.117 40.1278 119.805C40.8598 120.493 41.8548 120.837 43.1168 120.837C44.3673 120.837 45.3509 120.498 46.0676 119.819C46.7844 119.136 47.1428 118.189 47.1428 116.974V108.603H49.7048Z" fill="#003E59"/>
<path d="M66.1107 110.767H57.8147V114.63H65.2415V116.795H57.8147V120.736H66.37V122.901H55.2451V108.603H66.1107V110.767Z" fill="#003E59"/>
<path d="M94.9346 122.901H92.5709L92.548 112.215L87.7443 121.41H86.0668L81.2706 112.215V122.901H78.8535V108.603H81.8959L86.9208 118.099L91.9151 108.603H94.9346V122.901Z" fill="black"/>
<path d="M110.645 119.676H102.974L101.517 122.901H98.8486L105.566 108.603H108.189L114.838 122.901H112.101L110.645 119.676ZM109.669 117.526L106.802 111.176L103.935 117.526H109.669Z" fill="black"/>
<path d="M128.384 122.901L125.601 118.572C125.452 118.586 125.221 118.593 124.907 118.593H121.3V122.901H118.73V108.603H124.907C126.847 108.603 128.353 109.03 129.421 109.879C130.492 110.73 131.03 111.932 131.03 113.484C131.03 114.63 130.757 115.598 130.214 116.386C129.674 117.174 128.897 117.753 127.88 118.12L131.296 122.901H128.384ZM121.3 116.429H124.907C127.366 116.429 128.597 115.469 128.597 113.548C128.597 111.696 127.366 110.767 124.907 110.767H121.3V116.429Z" fill="black"/>
<path d="M143.091 122.901H140.445L134.383 108.603H137.143L141.832 120.227L146.568 108.603H149.244L143.091 122.901Z" fill="black"/>
<path d="M164.04 110.767H155.744V114.63H163.171V116.795H155.744V120.736H164.3V122.901H153.175V108.603H164.04V110.767Z" fill="black"/>
<path d="M171.869 120.715H178.45V122.901H169.3V108.603H171.869V120.715Z" fill="black"/>
</svg>
